<svg width="512" height="512" viewBox="0 0 512 512" fill="none" xmlns="http://www.w3.org/2000/svg">
<g clip-path="url(#clip0_18_13)">
<path d="M400 0H112C50.1441 0 0 50.1441 0 112V400C0 461.856 50.1441 512 112 512H400C461.856 512 512 461.856 512 400V112C512 50.1441 461.856 0 400 0Z" fill="#0A0A0A"/>
<path d="M293.685 67H219.497C210.361 67 193.313 74.1039 193.313 93.9476C193.313 113.791 205.997 120.895 215.133 120.895H293.685C302.821 120.895 317.687 113.791 317.687 93.9476C317.687 74.1039 302.821 67 293.685 67Z" fill="white"/>
<circle cx="255.5" cy="277.633" r="166.5" fill="white"/>
<path d="M220.122 87.3776H293.904C299.865 87.3776 304.589 91.347 304.589 96.1208C304.589 100.895 299.865 104.865 293.904 104.865H220.122C214.16 104.865 209.436 100.895 209.436 96.1208C209.436 91.347 214.16 87.3776 220.122 87.3776Z" fill="black" stroke="black" stroke-width="0.634978"/>
<path d="M255.5 408.024C327.513 408.024 385.892 349.646 385.892 277.632C385.892 205.619 327.513 147.241 255.5 147.241C183.487 147.241 125.108 205.619 125.108 277.632C125.108 349.646 183.487 408.024 255.5 408.024Z" stroke="black" stroke-width="20.3193"/>
<path d="M231.106 243.848C236.292 243.848 240.496 248.052 240.496 253.238V312.51C240.496 317.696 236.292 321.9 231.106 321.9C225.919 321.9 221.715 317.696 221.715 312.51V253.238C221.715 248.052 225.919 243.848 231.106 243.848Z" fill="black" stroke="black" stroke-width="0.634978"/>
<path d="M287.313 243.848C292.5 243.848 296.704 248.052 296.704 253.238V312.51C296.704 317.696 292.5 321.9 287.313 321.9C282.127 321.9 277.923 317.696 277.923 312.51V253.238C277.923 248.052 282.127 243.848 287.313 243.848Z" fill="black" stroke="black" stroke-width="0.634978"/>
</g>
<defs>
<clipPath id="clip0_18_13">
<rect width="512" height="512" fill="white"/>
</clipPath>
</defs>
</svg>
