<svg width="512" height="512" viewBox="0 0 512 512" fill="none" xmlns="http://www.w3.org/2000/svg">
<g clip-path="url(#clip0_18_13)">
<path d="M400 0H112C50.1441 0 0 50.1441 0 112V400C0 461.856 50.1441 512 112 512H400C461.856 512 512 461.856 512 400V112C512 50.1441 461.856 0 400 0Z" fill="#0A0A0A"/>
<path d="M289.104 91H224.188C216.194 91 201.277 97.2161 201.277 114.58C201.277 131.943 212.376 138.16 220.37 138.16H289.104C297.098 138.16 310.106 131.943 310.106 114.58C310.106 97.2161 297.098 91 289.104 91Z" fill="white"/>
<circle cx="255.691" cy="275.309" r="145.691" fill="white"/>
<path d="M224.735 108.831H289.296C294.513 108.831 298.646 112.305 298.646 116.482C298.646 120.659 294.512 124.132 289.296 124.132H224.735C219.518 124.132 215.384 120.659 215.384 116.482C215.384 112.305 219.518 108.831 224.735 108.831Z" fill="black" stroke="black" stroke-width="0.555621"/>
<path d="M255.692 389.404C318.705 389.404 369.787 338.322 369.787 275.308C369.787 212.295 318.705 161.213 255.692 161.213C192.678 161.213 141.596 212.295 141.596 275.308C141.596 338.322 192.678 389.404 255.692 389.404Z" stroke="black" stroke-width="17.7799"/>
<path d="M234.346 245.745C238.884 245.746 242.563 249.425 242.563 253.963V305.826C242.563 310.365 238.884 314.044 234.346 314.044C229.808 314.044 226.128 310.365 226.128 305.826V253.963C226.128 249.425 229.808 245.745 234.346 245.745Z" fill="black" stroke="black" stroke-width="0.555621"/>
<path d="M283.529 245.745C288.068 245.746 291.746 249.425 291.746 253.963V305.826C291.746 310.365 288.068 314.044 283.529 314.044C278.991 314.044 275.312 310.365 275.312 305.826V253.963C275.312 249.425 278.991 245.745 283.529 245.745Z" fill="black" stroke="black" stroke-width="0.555621"/>
</g>
<defs>
<clipPath id="clip0_18_13">
<rect width="512" height="512" fill="white"/>
</clipPath>
</defs>
</svg>
