<svg width="61" height="69" viewBox="0 0 61 69" fill="none" xmlns="http://www.w3.org/2000/svg">
<path d="M37.4491 0H23.8757C22.2042 0 19.0851 1.29973 19.0851 4.93032C19.0851 8.56091 21.4058 9.86064 23.0773 9.86064H37.4491C39.1205 9.86064 41.8404 8.56091 41.8404 4.93032C41.8404 1.29973 39.1205 0 37.4491 0Z" fill="white"/>
<circle cx="30.4628" cy="38.5372" r="30.4628" fill="white"/>
<path d="M23.9895 3.72783H37.4895C38.5801 3.72803 39.4436 4.45508 39.4436 5.32841C39.4434 6.20157 38.5799 6.92783 37.4895 6.92802H23.9895C22.8991 6.92787 22.0347 6.2016 22.0345 5.32841C22.0345 4.45505 22.8989 3.72798 23.9895 3.72783Z" fill="black" stroke="black" stroke-width="0.116175"/>
<path d="M30.4628 62.3936C43.6383 62.3936 54.3191 51.7127 54.3191 38.5372C54.3191 25.3617 43.6383 14.6809 30.4628 14.6809C17.2873 14.6809 6.60638 25.3617 6.60638 38.5372C6.60638 51.7127 17.2873 62.3936 30.4628 62.3936Z" stroke="black" stroke-width="3.71761"/>
<path d="M25.9998 32.3555C26.9486 32.3556 27.7175 33.1254 27.7175 34.0742V44.918C27.7175 45.8668 26.9486 46.6367 25.9998 46.6367C25.0509 46.6367 24.281 45.8669 24.281 44.918V34.0742C24.281 33.1253 25.0509 32.3555 25.9998 32.3555Z" fill="black" stroke="black" stroke-width="0.116175"/>
<path d="M36.2835 32.3555C37.2324 32.3556 38.0013 33.1254 38.0013 34.0742V44.918C38.0013 45.8668 37.2324 46.6367 36.2835 46.6367C35.3346 46.6367 34.5648 45.8669 34.5648 44.918V34.0742C34.5648 33.1253 35.3346 32.3555 36.2835 32.3555Z" fill="black" stroke="black" stroke-width="0.116175"/>
</svg>
