<svg width="73" height="85" viewBox="0 0 73 85" fill="none" xmlns="http://www.w3.org/2000/svg">
<path opacity="0.8" d="M27.2148 0.0791016H45.6055C47.0913 0.0791837 48.2686 1.06892 48.2686 2.25879C48.2683 3.44851 47.0912 4.43742 45.6055 4.4375H27.2148C25.7291 4.4374 24.552 3.4485 24.5518 2.25879C24.5518 1.06892 25.729 0.0791968 27.2148 0.0791016Z" fill="white" stroke="white" stroke-width="0.158268"/>
<path opacity="0.8" d="M36.4099 82C55.1195 82 70.2867 66.8328 70.2867 48.1232C70.2867 29.4136 55.1195 14.2465 36.4099 14.2465C17.7003 14.2465 2.5332 29.4136 2.5332 48.1232C2.5332 66.8328 17.7003 82 36.4099 82Z" stroke="white" stroke-width="5.06457"/>
<path opacity="0.8" d="M29.4062 36.4857C30.6989 36.4858 31.7471 37.5339 31.7471 38.8265V53.6C31.7469 54.8925 30.6988 55.9407 29.4062 55.9408C28.1136 55.9408 27.0656 54.8925 27.0654 53.6V38.8265C27.0654 37.5338 28.1136 36.4857 29.4062 36.4857Z" fill="white" stroke="white" stroke-width="0.158268"/>
<path opacity="0.8" d="M43.416 36.4857C44.7086 36.4858 45.7568 37.5339 45.7568 38.8265V53.6C45.7567 54.8925 44.7085 55.9407 43.416 55.9408C42.1234 55.9408 41.0753 54.8925 41.0752 53.6V38.8265C41.0752 37.5338 42.1233 36.4857 43.416 36.4857Z" fill="white" stroke="white" stroke-width="0.158268"/>
</svg>
