<svg width="83" height="94" viewBox="0 0 83 94" fill="none" xmlns="http://www.w3.org/2000/svg">
<path d="M51.0175 0H32.5263C30.2492 0 26 1.77065 26 6.71667C26 11.6627 29.1615 13.4333 31.4386 13.4333H51.0175C53.2946 13.4333 57 11.6627 57 6.71667C57 1.77065 53.2946 0 51.0175 0Z" fill="white"/>
<circle cx="41.5" cy="52.5" r="41.5" fill="white"/>
<path d="M32.6816 5.0791H51.0723C52.5581 5.07918 53.7354 6.06892 53.7354 7.25879C53.7351 8.44851 52.558 9.43742 51.0723 9.4375H32.6816C31.1959 9.4374 30.0188 8.4485 30.0186 7.25879C30.0186 6.06892 31.1958 5.0792 32.6816 5.0791Z" fill="black" stroke="black" stroke-width="0.158268"/>
<path d="M41.5 85C59.4493 85 74 70.4493 74 52.5C74 34.5507 59.4493 20 41.5 20C23.5507 20 9 34.5507 9 52.5C9 70.4493 23.5507 85 41.5 85Z" stroke="black" stroke-width="5.06457"/>
<path d="M35.4199 44.0791C36.7125 44.0792 37.7607 45.1273 37.7607 46.4199V61.1934C37.7606 62.4859 36.7125 63.5341 35.4199 63.5342C34.1273 63.5342 33.0793 62.4859 33.0791 61.1934V46.4199C33.0791 45.1272 34.1272 44.0791 35.4199 44.0791Z" fill="black" stroke="black" stroke-width="0.158268"/>
<path d="M49.4297 44.0791C50.7223 44.0792 51.7705 45.1273 51.7705 46.4199V61.1934C51.7704 62.4859 50.7222 63.5341 49.4297 63.5342C48.1371 63.5342 47.089 62.4859 47.0889 61.1934V46.4199C47.0889 45.1272 48.137 44.0791 49.4297 44.0791Z" fill="black" stroke="black" stroke-width="0.158268"/>
</svg>
